<svg id="svg" version="1.1" xmlns="http://www.w3.org/2000/svg" viewBox="0 0 500 500" style="display: block;"><path d="M0 0 C165 0 330 0 500 0 C500 165 500 330 500 500 C335 500 170 500 0 500 C0 335 0 170 0 0 Z " transform="translate(0,0)" style="fill: #FEFEFE;"/><path d="M0 0 C30.78650246 -0.48248889 65.72475902 0.3273677 90 22 C96.54778732 28.56211508 99.43773842 34.5154062 100.00390625 43.83984375 C99.98068602 62.6250068 89.59032054 77.10303841 77 90 C76.32710937 90.74636719 75.65421875 91.49273437 74.9609375 92.26171875 C65.86796061 102.06112213 53.86433714 110.82383478 42 117 C41.34 117 40.68 117 40 117 C40 117.66 40 118.32 40 119 C39.17121338 119.36677856 39.17121338 119.36677856 38.32568359 119.7409668 C34.49239649 121.4405398 30.66387886 123.14836898 26.8515625 124.89453125 C11.64558322 131.82372514 -3.47673605 138.08939795 -20 141 C-21.66735821 141.32985677 -23.33428566 141.66193989 -25 142 C-25.14695313 142.99515625 -25.29390625 143.9903125 -25.4453125 145.015625 C-26.86487952 154.05302306 -28.93080879 162.66657746 -31.66430664 171.39550781 C-33.48777699 177.22477245 -35.07494623 183.07698184 -36.5625 189 C-39.81465067 201.60525483 -45.29933304 212.88295711 -50.99072266 224.55371094 C-53.61897627 229.96922612 -56.04499858 235.4026189 -58.21850586 241.01708984 C-59 243 -59 243 -60 245 C-60.66 245 -61.32 245 -62 245 C-62.23976563 245.82242188 -62.47953125 246.64484375 -62.7265625 247.4921875 C-64.23097827 251.63625302 -66.20341653 255.29989055 -68.375 259.125 C-68.76171875 259.82753906 -69.1484375 260.53007812 -69.546875 261.25390625 C-71.66763098 265.01860394 -73.71837255 268.10797216 -77 271 C-75.45245115 263.13329337 -72.88232343 255.92881476 -70.02734375 248.453125 C-65.38931093 236.06000087 -61.91222083 223.47859018 -59.34375 210.5078125 C-59.12138672 209.38632812 -59.12138672 209.38632812 -58.89453125 208.2421875 C-58.76925049 207.5910498 -58.64396973 206.93991211 -58.51489258 206.26904297 C-58.08824124 204.38886397 -57.55591799 202.53302638 -56.99731445 200.68774414 C-55.99968508 196.99883552 -55.50730603 193.55465026 -55.1484375 189.75390625 C-55.08467926 189.09792953 -55.02092102 188.44195282 -54.95523071 187.76609802 C-54.75569482 185.69876239 -54.56519169 183.63071399 -54.375 181.5625 C-54.2401833 180.14903119 -54.10477197 178.73561896 -53.96875 177.32226562 C-53.63896529 173.88213675 -53.31726798 170.44130848 -53 167 C-59.33802311 169.40944368 -65.66332636 171.83868616 -71.9296875 174.4296875 C-98.3412852 185.32897903 -128.94237117 197.0019872 -158 196 C-155.36041882 194.24027922 -153.35251231 193.30410254 -150.40234375 192.2734375 C-149.51869141 191.9640625 -148.63503906 191.6546875 -147.72460938 191.3359375 C-146.80486328 191.01882813 -145.88511719 190.70171875 -144.9375 190.375 C-144.01388672 190.05015625 -143.09027344 189.7253125 -142.13867188 189.390625 C-135.26311384 187 -135.26311384 187 -133 187 C-133 186.34 -133 185.68 -133 185 C-132.46375 184.81566406 -131.9275 184.63132812 -131.375 184.44140625 C-114.07496064 178.03925353 -96.87468661 167.27851703 -83.67871094 154.40283203 C-80.18097921 151 -80.18097921 151 -78 151 C-78 150.34 -78 149.68 -78 149 C-78.61593018 148.98541748 -79.23186035 148.97083496 -79.86645508 148.95581055 C-137.1602868 147.46375622 -137.1602868 147.46375622 -153 134 C-149.8868321 132.44341605 -147.71543716 133.82877125 -144.4375 134.8125 C-113.39620289 143.41492958 -78.02763226 139.98121726 -47 133 C-45.9790625 132.78730469 -44.958125 132.57460938 -43.90625 132.35546875 C-4.32403166 123.80930797 36.04209731 106.14403294 59.125 71.22265625 C65.18660186 60.80427805 68.25109488 51.07306559 67 39 C63.8697957 28.3650026 56.43304353 21.13420376 47.2890625 15.2578125 C32.78743102 7.41799492 16.04650033 4.0547649 0 1 C0 0.67 0 0.34 0 0 Z " transform="translate(264,166)" style="fill: #05C066;"/><path d="M0 0 C0.99 0.495 0.99 0.495 2 1 C2.73022461 3.21801758 2.73022461 3.21801758 3.40234375 6.14453125 C3.65306641 7.21509766 3.90378906 8.28566406 4.16210938 9.38867188 C4.41798828 10.51853516 4.67386719 11.64839844 4.9375 12.8125 C5.4460418 15.00664325 5.95515512 17.20065412 6.46484375 19.39453125 C6.84286133 21.04219482 6.84286133 21.04219482 7.22851562 22.72314453 C7.97268185 25.88396702 8.77484926 29.02477969 9.58984375 32.16796875 C10.95288955 37.58052077 11.88446499 42.97123295 12.625 48.5 C12.74617188 49.34691406 12.86734375 50.19382813 12.9921875 51.06640625 C14.47010809 61.71707312 15.15637234 72.30487068 15.16796875 83.0546875 C15.17296135 84.7107048 15.17296135 84.7107048 15.17805481 86.400177 C15.18308006 88.71778959 15.18546451 91.03540931 15.18530273 93.35302734 C15.18749013 96.85917287 15.20569604 100.36500361 15.22460938 103.87109375 C15.25177945 115.07770604 15.21686464 125.96968538 13 137 C10 138 7 139 4 140 C3.15050781 140.3196875 2.30101562 140.639375 1.42578125 140.96875 C-3.5373458 142.4627814 -8.58158697 143.26498969 -13.6875 144.125 C-15.25467773 144.39763672 -15.25467773 144.39763672 -16.85351562 144.67578125 C-24.58476269 146 -24.58476269 146 -28 146 C-27.5898229 141.48805186 -26.9395605 137.50344713 -25.45703125 133.21484375 C-25.18479736 132.42070068 -24.91256348 131.62655762 -24.63208008 130.80834961 C-24.42349365 130.21159424 -24.21490723 129.61483887 -24 129 C-24.83023682 129.01571045 -25.66047363 129.0314209 -26.51586914 129.04760742 C-57.04016073 129.54946362 -57.04016073 129.54946362 -69 126 C-70.25683594 125.64808594 -71.51367188 125.29617188 -72.80859375 124.93359375 C-86.26894768 121.029051 -100.00891898 116.32788285 -112 109 C-107.91281096 107.63760365 -104.73480868 108.79809383 -100.6875 109.8125 C-99.94048828 109.99103516 -99.19347656 110.16957031 -98.42382812 110.35351562 C-95.22822556 111.1306727 -92.14672331 111.9469464 -89.05078125 113.06640625 C-84.9035745 114.33552586 -80.80797574 114.72857305 -76.5 115.125 C-75.16714966 115.2480249 -75.16714966 115.2480249 -73.80737305 115.37353516 C-57.27213235 116.8168389 -41.80261186 116.28946264 -27 108 C-26.01 108 -25.02 108 -24 108 C-23.505 106.515 -23.505 106.515 -23 105 C-21.3984375 103.5625 -21.3984375 103.5625 -19.375 102 C-13.55522008 97.08923418 -10.0827093 90.75197754 -6.42578125 84.1640625 C-5.72001953 83.09285156 -5.72001953 83.09285156 -5 82 C-4.34 82 -3.68 82 -3 82 C-2.87625 81.071875 -2.7525 80.14375 -2.625 79.1875 C-2.1809953 76.06695993 -1.63869633 72.97375662 -1.0625 69.875 C-0.70739097 67.91683733 -0.35334381 65.95848197 0 64 C0.17571533 63.06003174 0.35143066 62.12006348 0.5324707 61.15161133 C2.05177913 52.33704617 2.31340124 43.72126867 2.25 34.8125 C2.24822754 34.09264923 2.24645508 33.37279846 2.24462891 32.63113403 C2.21292966 21.65816716 1.70947081 10.85208699 0 0 Z " transform="translate(230,149)" style="fill: #08C068;"/><path d="M0 0 C5.80448344 3.30058862 11.18490441 7.18243776 13.1875 13.8125 C13.95036207 21.16683318 14.14166423 27.36900966 10.1875 33.8125 C8.28515625 35.859375 8.28515625 35.859375 6.25 37.5625 C5.58097656 38.13484375 4.91195312 38.7071875 4.22265625 39.296875 C-1.75377504 43.74765301 -7.5414615 43.49171078 -14.8125 42.8125 C-21.61233479 41.07683942 -25.24554154 36.62054092 -28.8125 30.8125 C-31.5086919 26.15544127 -31.4373451 21.05158582 -30.8125 15.8125 C-28.73685959 8.48207372 -23.24380213 3.52904163 -16.89453125 -0.36328125 C-11.54038881 -2.48283858 -5.35609881 -1.66829307 0 0 Z " transform="translate(201.8125,203.1875)" style="fill: #03BF65;"/><path d="M0 0 C0.66 0.33 1.32 0.66 2 1 C3.20116938 6.64549608 3.10414253 12.24901786 3 18 C3.61875 17.505 4.2375 17.01 4.875 16.5 C7 15 7 15 9 15 C8 17 7 19 6 21 C7.12019531 21.04898438 8.24039063 21.09796875 9.39453125 21.1484375 C10.86721203 21.22347856 12.33986707 21.29902582 13.8125 21.375 C14.55048828 21.4059375 15.28847656 21.436875 16.04882812 21.46875 C19.81893115 21.67346148 21.79650741 21.86433827 25 24 C18.56971459 25.32388229 12.5705166 26.24794402 6 26 C6.33 27.32 6.66 28.64 7 30 C5.68 29.67 4.36 29.34 3 29 C2.95101562 30.12019531 2.90203125 31.24039063 2.8515625 32.39453125 C2.77652144 33.86721203 2.70097418 35.33986707 2.625 36.8125 C2.57859375 37.91948242 2.57859375 37.91948242 2.53125 39.04882812 C2.32653852 42.81893115 2.13566173 44.79650741 0 48 C-1.6498007 44.70039859 -1.38258361 41.00872116 -1.5625 37.375 C-1.60568359 36.57320312 -1.64886719 35.77140625 -1.69335938 34.9453125 C-1.79951457 32.9637489 -1.90026855 30.98189729 -2 29 C-3.65 29.66 -5.3 30.32 -7 31 C-6.67 30.01 -6.34 29.02 -6 28 C-12.27 26.68 -18.54 25.36 -25 24 C-25 23.67 -25 23.34 -25 23 C-18.2168636 21.57997892 -11.93302093 20.77268784 -5 21 C-5.99 19.68 -6.98 18.36 -8 17 C-7.67 16.34 -7.34 15.68 -7 15 C-5.35 15.99 -3.7 16.98 -2 18 C-1.90912109 16.55367187 -1.90912109 16.55367187 -1.81640625 15.078125 C-1.73261719 13.81484375 -1.64882812 12.5515625 -1.5625 11.25 C-1.48128906 9.99703125 -1.40007812 8.7440625 -1.31640625 7.453125 C-1.07484478 4.81682447 -0.75716066 2.51962706 0 0 Z " transform="translate(225,88)" style="fill: #1CC574;"/><path d="M0 0 C2.49505962 2.49505962 2.35948376 3.67328888 2.625 7.125 C2.69976562 8.03507812 2.77453125 8.94515625 2.8515625 9.8828125 C2.90054688 10.58148438 2.94953125 11.28015625 3 12 C4.32 11.67 5.64 11.34 7 11 C7 12.32 7 13.64 7 15 C10.3 15.66 13.6 16.32 17 17 C13.79349434 19.13767044 11.43680401 19.67962995 7.7421875 20.4375 C7.16726562 20.623125 6.59234375 20.80875 6 21 C5.67 21.66 5.34 22.32 5 23 C4.34 22.67 3.68 22.34 3 22 C2.95101562 22.68707031 2.90203125 23.37414062 2.8515625 24.08203125 C2.77679688 24.98308594 2.70203125 25.88414063 2.625 26.8125 C2.55539063 27.70582031 2.48578125 28.59914063 2.4140625 29.51953125 C2 32 2 32 0 35 C-0.10957031 34.22914062 -0.21914062 33.45828125 -0.33203125 32.6640625 C-0.49058594 31.66117188 -0.64914063 30.65828125 -0.8125 29.625 C-0.96332031 28.62726563 -1.11414063 27.62953125 -1.26953125 26.6015625 C-1.78772298 23.6712636 -1.78772298 23.6712636 -5 22 C-4.67 21.34 -4.34 20.68 -4 20 C-4.61488281 19.95101562 -5.22976562 19.90203125 -5.86328125 19.8515625 C-6.67152344 19.77679688 -7.47976562 19.70203125 -8.3125 19.625 C-9.11300781 19.55539063 -9.91351563 19.48578125 -10.73828125 19.4140625 C-13 19 -13 19 -16 17 C-12.04 16.34 -8.08 15.68 -4 15 C-4.66 13.68 -5.32 12.36 -6 11 C-5.01 11.33 -4.02 11.66 -3 12 C-2.01 8.04 -1.02 4.08 0 0 Z " transform="translate(186,61)" style="fill: #2ECA7E;"/><path d="M0 0 C0.33 0 0.66 0 1 0 C1.495 6.93 1.495 6.93 2 14 C5.00778521 15.00259507 7.53820647 15.30314642 10.6875 15.5625 C11.68136719 15.64628906 12.67523438 15.73007813 13.69921875 15.81640625 C14.45847656 15.87699219 15.21773438 15.93757813 16 16 C16 16.66 16 17.32 16 18 C12.04 18 8.08 18 4 18 C4 18.66 4 19.32 4 20 C3.34 20 2.68 20 2 20 C1.67 24.29 1.34 28.58 1 33 C-1 29 -1 29 -2 25.3125 C-2.33 24.219375 -2.66 23.12625 -3 22 C-3.66 21.67 -4.32 21.34 -5 21 C-4.67 20.34 -4.34 19.68 -4 19 C-7.96 18.67 -11.92 18.34 -16 18 C-16 17.34 -16 16.68 -16 16 C-11.9472484 15.01751476 -8.16138263 14.91840426 -4 15 C-4.33 14.01 -4.66 13.02 -5 12 C-4.01 11.67 -3.02 11.34 -2 11 C-1.34 7.37 -0.68 3.74 0 0 Z " transform="translate(261,68)" style="fill: #2DCA7E;"/><path d="M0 0 C2 1 2 1 2.86254883 2.81176758 C5.83050383 12.3772373 5.10755784 21.81476202 4.6875 31.6875 C4.62411176 33.46804483 4.56225051 35.2486447 4.50195312 37.02929688 C4.3522315 41.35370038 4.18187046 45.67683415 4 50 C3.67 50 3.34 50 3 50 C2.98018066 49.1248877 2.96036133 48.24977539 2.93994141 47.34814453 C2.40593191 23.60913039 2.40593191 23.60913039 0 0 Z " transform="translate(230,149)" style="fill: #54D295;"/><path d="M0 0 C7.55607786 1.10355089 14.74822618 2.59343789 22 5 C18.90279155 5.87840996 17.09354597 5.99435406 14 5 C14.33 5.99 14.66 6.98 15 8 C9.52067211 6.45454854 4.88570819 3.84456788 0 1 C0 0.67 0 0.34 0 0 Z " transform="translate(118,257)" style="fill: #4ED292;"/><path d="M0 0 C-1.32 0.33 -2.64 0.66 -4 1 C-4 1.66 -4 2.32 -4 3 C-3.34 3.33 -2.68 3.66 -2 4 C-6.67201205 5.20568053 -11.21496292 5.09382426 -16 5 C-13.13879225 3.09252817 -10.64745007 1.99646294 -7.4375 0.8125 C-6.46683594 0.44769531 -5.49617188 0.08289063 -4.49609375 -0.29296875 C-2 -1 -2 -1 0 0 Z " transform="translate(122,357)" style="fill: #48D18F;"/><path d="M0 0 C1.93884889 0.28256092 3.87605961 0.5763793 5.8125 0.875 C6.89144531 1.03742188 7.97039062 1.19984375 9.08203125 1.3671875 C12 2 12 2 15 4 C14.05125 3.979375 13.1025 3.95875 12.125 3.9375 C9.09333717 3.77448174 9.09333717 3.77448174 7 5 C4.5249829 3.88568235 2.32116581 2.41849022 0 1 C0 0.67 0 0.34 0 0 Z " transform="translate(118,257)" style="fill: #6CDAA5;"/><path d="M0 0 C0.25 7.625 0.25 7.625 -2 11 C-3.62651522 7.74696956 -3.11453156 4.60774398 -3 1 C-2 0 -2 0 0 0 Z " transform="translate(227,125)" style="fill: #3BCD87;"/><path d="M0 0 C4.95 0.99 4.95 0.99 10 2 C9.01 2.495 9.01 2.495 8 3 C8.33 3.99 8.66 4.98 9 6 C5.06326356 4.68775452 2.77280706 3.08089673 0 0 Z " transform="translate(111,299)" style="fill: #2ECA7E;"/><path d="M0 0 C1.10914742 3.32744227 1.03211839 5.64561525 0 9 C-0.9665079 10.03240616 -1.96307804 11.0383385 -3 12 C-2.68950274 10.56206608 -2.3765224 9.1246682 -2.0625 7.6875 C-1.88847656 6.88699219 -1.71445313 6.08648437 -1.53515625 5.26171875 C-1 3 -1 3 0 0 Z " transform="translate(190,425)" style="fill: #4BD190;"/><path d="M0 0 C2.64 0 5.28 0 8 0 C8 0.33 8 0.66 8 1 C6.35 1.33 4.7 1.66 3 2 C3 3.65 3 5.3 3 7 C1.5 5.75 1.5 5.75 0 4 C0 2.68 0 1.36 0 0 Z " transform="translate(231,114)" style="fill: #B5EBD1;"/><path d="M0 0 C0.33 0 0.66 0 1 0 C1.33 3.63 1.66 7.26 2 11 C-1 8 -1 8 -1.07421875 5.95703125 C-0.71614583 3.97135417 -0.35807292 1.98567708 0 0 Z " transform="translate(261,68)" style="fill: #37CC84;"/><path d="M0 0 C2 2 2 2 2.125 5.125 C2.08375 6.07375 2.0425 7.0225 2 8 C1.34 8 0.68 8 0 8 C-0.33 8.66 -0.66 9.32 -1 10 C-0.67 6.7 -0.34 3.4 0 0 Z " transform="translate(186,61)" style="fill: #43D08C;"/></svg>